<?xml version="1.0" encoding="utf-8"?>
<?xml-stylesheet type="text/xsl" href="rss1.xsl"?>
<rss version="2.0" xmlns:atom="http://www.w3.org/2005/Atom" xmlns:content="http://purl.org/rss/1.0/modules/content/" xmlns:dc="http://purl.org/dc/elements/1.1/" xmlns:media="http://search.yahoo.com/mrss/">
<channel>
 <title>Getty</title>
 <link>http://www.gettyimg.com/</link>
 <atom:link href="http://www.gettyimg.com/" rel="self" type="application/rss+xml" />

 
                <item>
                <title><![CDATA[【SD Live Performances】SDTV - Coldplay - Rock Am Ring 2011 704x560 x264-mV4U]]></title>
                <link><![CDATA[https://sharemania.us/threads/coldplay-rock-am-ring-2011-704x560-x264-mv4u.229385/]]></link>
                <description><![CDATA[<article>
<blockquote class="messageText SelectQuoteContainer ugc baseHtml">
<div style="text-align: center"><img src="https://i.imgur.com/2356IXZ.jpg" class="bbCodeImage LbImage" alt="[​IMG]" data-url="https://i.imgur.com/2356IXZ.jpg" style=""><br>
<br>
<b>Coldplay Rock Am Ring 2011</b><br>
Nürburgring, Eifel, Germany<br>
Saturday 04 june 2011<br>
<br>
<b>Tracklist:</b><br>
01 - Mylo Xyloto<br>
02 - Hurts Like Heaven<br>
03 - Yellow<br>
04 - In My Place<br>
05 - Major Minus<br>
06 - Lost! (w/ "Singing in the Rain" snippet)<br>
07 - Cemeteries of London<br>
08 - God Put A Smile Upon Your Face<br>
09 - Violet Hill<br>
10 - The Scientist<br>
11 - Us Against the World<br>
12 - Politik<br>
13 - Viva La Vida<br>
14 - Charlie Brown<br>
15 - Life Is For Living<br>
16 - Clocks<br>
17 - Fix You<br>
18 - Every Teardrop is a Waterfall<br>
<b><br>
Release: Coldplay-Rock_Am_Ring-x264-2011-mV4U</b><br>
<br>
<div class="ToggleTriggerAnchor bbCodeSpoilerContainer">
<button type="button" class="button bbCodeSpoilerButton ToggleTrigger Tooltip JsOnly" data-target="> .SpoilerTarget"><span>Spoiler: <span class="SpoilerTitle">MediaInfo</span></span></button>
<div class="SpoilerTarget bbCodeSpoilerText"><b>General</b><br>
Unique ID: 247360465894364599466149442146751445866 (0xBA17E490A93ED1EE8C72F56B2FFF7B6A)<br>
Complete name: C:\Coldplay-Rock_Am_Ring-x264-2011-mV4U\mv4u-crar.mkv<br>
Format: Matroska<br>
Format version: Version 2<br>
File size: 1.46 GiB<br>
Duration: 1 h 19 min<br>
Overall bit rate: 2 620 kb/s<br>
Encoded date: UTC 2011-06-06 19:27:11<br>
Writing application: mkvmerge v2.9.8 ('C'est le bon') built on Aug 13 2009 12:49:06<br>
Writing library: libebml v0.7.7 + libmatroska v0.8.1<br>
<b>Video</b><br>
ID: 1<br>
Format: AVC<br>
Format/Info: Advanced Video Codec<br>
Format profile: Main@L3<br>
Format settings: CABAC / 5 Ref Frames<br>
Format settings, CABAC: Yes<br>
Format settings, Reference frames: 5 frames<br>
Codec ID: V_MPEG4/ISO/AVC<br>
Duration: 1 h 19 min<br>
Bit rate: 2 426 kb/s<br>
Width: 704 pixels<br>
Height: 560 pixels<br>
Display aspect ratio: 16:9<br>
Frame rate mode: Constant<br>
Frame rate: 25.000 FPS<br>
Color space: YUV<br>
Chroma subsampling: 4:2:0<br>
Bit depth: 8 bits<br>
Scan type: Progressive<br>
Bits/(Pixel*Frame): 0.246<br>
Stream size: 1.32 GiB (91%)<br>
Writing library: x264 core 68 r1184 88b35c2<br>
Encoding settings: cabac=1 / ref=5 / deblock=1:0:0 / analyse=0x1:0x111 / me=umh / subme=9 / psy_rd=1.0:0.0 / mixed_ref=1 / me_range=24 / chroma_me=1 / trellis=2 / 8x8dct=0 / cqm=0 / deadzone=21,11 / chroma_qp_offset=-2 / threads=6 / nr=0 / decimate=1 / mbaff=0 / bframes=5 / b_pyramid=0 / b_adapt=1 / b_bias=0 / direct=1 / wpredb=1 / keyint=250 / keyint_min=25 / scenecut=40 / rc=2pass / bitrate=2426 / ratetol=1.0 / qcomp=0.60 / qpmin=10 / qpmax=51 / qpstep=4 / cplxblur=20.0 / qblur=0.5 / ip_ratio=1.40 / pb_ratio=1.30 / aq=1:1.00<br>
Language: English<br>
Default: No<br>
Forced: No<br>
<b>Audio</b><br>
ID: 2<br>
Format: MPEG Audio<br>
Format version: Version 1<br>
Format profile: Layer 2<br>
Codec ID: A_MPEG/L2<br>
Codec ID/Hint: MP2<br>
Duration: 1 h 19 min<br>
Bit rate mode: Constant<br>
Bit rate: 192 kb/s<br>
Channel(s): 2 channels<br>
Sampling rate: 48.0 kHz<br>
Compression mode: Lossy<br>
Stream size: 109 MiB (7%)<br>
Default: Yes<br>
Forced: No</div>
</div><br>
<div class="bbCodeBlock bbCodeVfcHH HiddenContent">
<div class="attribution type">Hidden Content:</div>
<blockquote>You must either reply or click 'Like' to see the hidden information contained here.</blockquote>
</div></div>
<div class="messageTextEndMarker">&nbsp;</div>
</blockquote>
</article>]]></description>
                <author><![CDATA[s0alken]]></author>
                </item>

                </channel></rss>